<svg width="44" height="45" viewBox="0 0 44 45" fill="none" xmlns="http://www.w3.org/2000/svg">
<path fill-rule="evenodd" clip-rule="evenodd" d="M5.94579 6.56103C4.07215 8.43467 3.06977 11.5108 3.06977 16.4757V28.7548C3.06977 33.7197 4.07215 36.7958 5.94579 38.6694C7.81944 40.5431 10.8956 41.5455 15.8605 41.5455H28.1395C33.1044 41.5455 36.1806 40.5431 38.0542 38.6694C39.9279 36.7958 40.9302 33.7197 40.9302 28.7548V16.4757C40.9302 11.5108 39.9279 8.43467 38.0542 6.56103C36.1806 4.68738 33.1044 3.685 28.1395 3.685H15.8605C10.8956 3.685 7.81944 4.68738 5.94579 6.56103ZM3.77514 4.39037C6.50614 1.65937 10.5928 0.615234 15.8605 0.615234H28.1395C33.4072 0.615234 37.4939 1.65937 40.2249 4.39037C42.9559 7.12138 44 11.208 44 16.4757V28.7548C44 34.0224 42.9559 38.1091 40.2249 40.8401C37.4939 43.5711 33.4072 44.6152 28.1395 44.6152H15.8605C10.5928 44.6152 6.50614 43.5711 3.77514 40.8401C1.04413 38.1091 0 34.0224 0 28.7548V16.4757C0 11.208 1.04413 7.12138 3.77514 4.39037Z" fill="#8754AF"/>
<path fill-rule="evenodd" clip-rule="evenodd" d="M29.4506 14.8392C30.05 15.4386 30.05 16.4104 29.4506 17.0099L16.0665 30.394C15.4671 30.9934 14.4953 30.9934 13.8958 30.394C13.2964 29.7946 13.2964 28.8228 13.8958 28.2233L27.28 14.8392C27.8794 14.2398 28.8512 14.2398 29.4506 14.8392Z" fill="#8754AF"/>
<path fill-rule="evenodd" clip-rule="evenodd" d="M15.8197 15.7797C15.2772 15.7797 14.8373 16.2196 14.8373 16.7621C14.8373 17.3046 15.2771 17.7444 15.8197 17.7444C16.3622 17.7444 16.802 17.3046 16.802 16.7621C16.802 16.2195 16.3622 15.7797 15.8197 15.7797ZM11.7676 16.7621C11.7676 14.5242 13.5818 12.71 15.8197 12.71C18.0577 12.71 19.8717 14.5242 19.8717 16.7621C19.8717 19 18.0576 20.8141 15.8197 20.8141C13.5818 20.8141 11.7676 19 11.7676 16.7621Z" fill="#8754AF"/>
<path fill-rule="evenodd" clip-rule="evenodd" d="M29.2039 27.4858C28.6614 27.4858 28.2216 27.9255 28.2216 28.4681C28.2216 29.0106 28.6614 29.4504 29.2039 29.4504C29.7464 29.4504 30.1863 29.0106 30.1863 28.4681C30.1863 27.9256 29.7465 27.4858 29.2039 27.4858ZM25.1519 28.4681C25.1519 26.2302 26.966 24.416 29.2039 24.416C31.4418 24.416 33.256 26.2301 33.256 28.4681C33.256 30.706 31.4418 32.5202 29.2039 32.5202C26.9659 32.5202 25.1519 30.7059 25.1519 28.4681Z" fill="#8754AF"/>
</svg>
